ModelForces
version=1
nRows=4
nColumns=155
inDegrees=no

This file contains the forces exerted on a model during a simulation.

A force is a generalized force, meaning that it can be either a force (N) or a torque (Nm).

Units are S.I. units (second, meters, Newtons, ...)
Angles are in degrees.

endheader
time	glut_med1_r	glut_med2_r	glut_med3_r	glut_min1_r	glut_min2_r	glut_min3_r	semimem_r	semiten_r	bifemlh_r	bifemsh_r	sar_r	add_long_r	add_brev_r	add_mag1_r	add_mag2_r	add_mag3_r	tfl_r	pect_r	grac_r	glut_max1_r	glut_max2_r	glut_max3_r	iliacus_r	psoas_r	quad_fem_r	gem_r	peri_r	rect_fem_r	vas_med_r	vas_int_r	vas_lat_r	med_gas_r	lat_gas_r	soleus_r	tib_post_r	flex_dig_r	flex_hal_r	tib_ant_r	per_brev_r	per_long_r	per_tert_r	ext_dig_r	ext_hal_r	glut_med1_l	glut_med2_l	glut_med3_l	glut_min1_l	glut_min2_l	glut_min3_l	semimem_l	semiten_l	bifemlh_l	bifemsh_l	sar_l	add_long_l	add_brev_l	add_mag1_l	add_mag2_l	add_mag3_l	tfl_l	pect_l	grac_l	glut_max1_l	glut_max2_l	glut_max3_l	iliacus_l	psoas_l	quad_fem_l	gem_l	peri_l	rect_fem_l	vas_med_l	vas_int_l	vas_lat_l	med_gas_l	lat_gas_l	soleus_l	tib_post_l	flex_dig_l	flex_hal_l	tib_ant_l	per_brev_l	per_long_l	per_tert_l	ext_dig_l	ext_hal_l	ercspn_r	ercspn_l	intobl_r	intobl_l	extobl_r	extobl_l	femur_lat_meniscii_r.femur_lat_r.force.X	femur_lat_meniscii_r.femur_lat_r.force.Y	femur_lat_meniscii_r.femur_lat_r.force.Z	femur_lat_meniscii_r.femur_lat_r.torque.X	femur_lat_meniscii_r.femur_lat_r.torque.Y	femur_lat_meniscii_r.femur_lat_r.torque.Z	femur_lat_meniscii_r.meniscus_lat_r.force.X	femur_lat_meniscii_r.meniscus_lat_r.force.Y	femur_lat_meniscii_r.meniscus_lat_r.force.Z	femur_lat_meniscii_r.meniscus_lat_r.torque.X	femur_lat_meniscii_r.meniscus_lat_r.torque.Y	femur_lat_meniscii_r.meniscus_lat_r.torque.Z	femur_med_meniscii_r.femur_med_r.force.X	femur_med_meniscii_r.femur_med_r.force.Y	femur_med_meniscii_r.femur_med_r.force.Z	femur_med_meniscii_r.femur_med_r.torque.X	femur_med_meniscii_r.femur_med_r.torque.Y	femur_med_meniscii_r.femur_med_r.torque.Z	femur_med_meniscii_r.meniscus_med_r.force.X	femur_med_meniscii_r.meniscus_med_r.force.Y	femur_med_meniscii_r.meniscus_med_r.force.Z	femur_med_meniscii_r.meniscus_med_r.torque.X	femur_med_meniscii_r.meniscus_med_r.torque.Y	femur_med_meniscii_r.meniscus_med_r.torque.Z	femur_med_tibia_r.tibia_upper_r.force.X	femur_med_tibia_r.tibia_upper_r.force.Y	femur_med_tibia_r.tibia_upper_r.force.Z	femur_med_tibia_r.tibia_upper_r.torque.X	femur_med_tibia_r.tibia_upper_r.torque.Y	femur_med_tibia_r.tibia_upper_r.torque.Z	femur_med_tibia_r.femur_med_r.force.X	femur_med_tibia_r.femur_med_r.force.Y	femur_med_tibia_r.femur_med_r.force.Z	femur_med_tibia_r.femur_med_r.torque.X	femur_med_tibia_r.femur_med_r.torque.Y	femur_med_tibia_r.femur_med_r.torque.Z	femur_lat_tibia_r.tibia_upper_r.force.X	femur_lat_tibia_r.tibia_upper_r.force.Y	femur_lat_tibia_r.tibia_upper_r.force.Z	femur_lat_tibia_r.tibia_upper_r.torque.X	femur_lat_tibia_r.tibia_upper_r.torque.Y	femur_lat_tibia_r.tibia_upper_r.torque.Z	femur_lat_tibia_r.femur_lat_r.force.X	femur_lat_tibia_r.femur_lat_r.force.Y	femur_lat_tibia_r.femur_lat_r.force.Z	femur_lat_tibia_r.femur_lat_r.torque.X	femur_lat_tibia_r.femur_lat_r.torque.Y	femur_lat_tibia_r.femur_lat_r.torque.Z	aACL_R	pACL_R	aPCL_R	pPCL_R	aMCL_R	mMCL_R	pMCL_R	aLCL_R	mLCL_R	pLCL_R	aPCL_L	pPCL_L	aMCL_L	aLCL_L
      0.08119896	      0.00000000	     13.66444443	     14.44853061	      6.26663846	      7.13716551	      7.00405129	     15.14544479	    234.77200115	    298.80823187	    420.02022627	    139.65651145	     13.83924998	      9.68375013	      0.00000000	      0.00000000	     10.28383018	      4.80813356	      0.00000000	    121.68066411	      8.68789957	     13.59112667	     10.30438421	     37.78866702	     30.19075990	      0.00000000	      5.31394988	      0.00000000	     45.23227512	      0.00000000	      0.00000000	      0.00000000	     37.52814421	     20.58287235	      0.00000000	     24.56667974	     11.91764653	      9.98674800	     36.35874775	      2.36269536	      9.53142820	      5.32636828	     19.63553482	      6.16836309	      0.00000000	     13.66444443	     14.44853061	      6.26663846	      7.13716551	      7.00405129	      0.00000000	     10.51736916	     11.71569490	     17.33558087	      3.56774516	     13.83924998	      9.68375013	      0.00000000	      0.00000000	     10.28383018	      7.87642451	      0.00000000	      3.71306575	      8.68789957	     13.59112667	     10.30438421	     37.78866702	     30.19075990	      0.00000000	      5.31394988	      0.00000000	     27.13021345	      0.00000000	      0.00000000	      0.00000000	      0.00000000	      0.00000000	     45.96268354	     59.71388062	     10.90994044	      9.95346656	     13.84335117	     10.19266235	     22.34789362	      4.62441666	      7.51679423	      2.32595712	     59.04637939	     59.04637939	     22.69228395	     22.69228395	     39.32457784	     39.32457784	     67.95900801	    330.39343830	     27.12250584	    -19.11188950	      1.65186991	     28.07349122	    -67.95900801	   -330.39343830	    -27.12250584	      9.83789563	     -2.11394931	      0.79255200	     40.36844825	    173.90177381	      3.70122236	      2.09350357	     -0.78410427	     16.10186613	    -40.36844825	   -173.90177381	     -3.70122236	     -2.92294750	      0.61577436	      0.85367667	    -13.59059311	   -495.72626502	     55.87832046	    -10.29759906	      0.58473502	      3.02567735	     13.59059311	    495.72626502	    -55.87832046	     33.38689249	     -0.15277878	      6.42215927	      5.47945770	   -264.80343567	    -52.92989389	      8.79633334	     -0.20931524	      1.96984240	     -5.47945770	    264.80343567	     52.92989389	    -28.18103950	     -0.22488184	     -1.80435556	     62.86899391	     42.12023190	      0.00000000	      0.00000000	      0.00000000	     -4.64171397	    -27.01898173	      0.00000000	      0.00000000	      0.00000000	      0.00000000	      0.00000000	      0.00000001	      0.00000000
      0.08224800	      0.00000000	     13.57433755	     14.38816332	      6.21599689	      7.08116025	      7.04288628	     25.77195626	    234.01295177	    295.94681653	    417.58060661	    139.51019657	     13.72251775	      9.60616098	      0.00000000	      0.00000000	     10.21217649	      4.81150816	      0.00000000	    121.42480723	      8.64934213	     13.48310712	     10.21802787	     37.57059008	     29.94304369	      0.00000000	      5.28141503	      0.00000000	     44.46095416	      0.00000000	      0.00000000	      0.00000000	     34.72103127	     18.80387785	      0.00000000	     22.88527778	     11.73308363	      9.90804175	     31.25665395	      2.37173590	      9.12213224	      7.57390863	     19.56455209	      6.13979091	      0.00000000	     13.57433755	     14.38816332	      6.21599689	      7.08116025	      7.04288628	      0.00000000	     10.42595136	     12.09584639	     17.19264279	      3.53903669	     13.72251775	      9.60616098	      0.00000000	      0.00000000	     10.21217649	      7.83656132	      0.00000000	      3.68272431	      8.64934213	     13.48310712	     10.21802787	     37.57059008	     29.94304369	      0.00000000	      5.28141503	      0.00000000	     27.01991909	      0.00000000	      0.00000000	      0.00000000	      0.00000000	      0.10382712	     47.07451757	     59.68007148	     10.83979321	      9.94345236	     14.28364177	     10.18606932	     22.35698502	      4.58987368	      7.66410475	      2.38359227	     58.56829956	     58.56829956	     22.49856749	     22.49856749	     39.14320864	     39.14320864	     67.47427452	    332.13577677	     27.82846712	    -19.43651174	      1.64125047	     27.84363237	    -67.47427452	   -332.13577677	    -27.82846712	      9.89438200	     -2.11211133	      0.91246172	     37.76676202	    173.31252530	      4.04527252	      1.92394396	     -0.71336339	     14.98267495	    -37.76676202	   -173.31252530	     -4.04527252	     -2.88890502	      0.55052510	      1.00274230	    -12.60228131	   -491.00854310	     54.19787182	    -10.14035714	      0.57489370	      3.19636608	     12.60228131	    491.00854310	    -54.19787182	     32.56592683	     -0.14406976	      5.92117960	      5.37051703	   -259.92889397	    -51.84543332	      8.62753373	     -0.22053742	      2.00698766	     -5.37051703	    259.92889397	     51.84543332	    -27.61640312	     -0.21415555	     -1.79464072	     63.24009543	     41.53702044	      0.00000000	      0.00000000	      0.00000000	     -4.76455141	    -27.76903863	      0.00000000	      0.00000000	      0.00000000	      0.00000000	      0.00000000	      0.00000001	      0.00000000
      0.08329703	      0.00000000	     13.48213162	     14.32159176	      6.16609273	      7.02596954	      7.07013976	     37.82421397	    233.11104976	    293.08033440	    415.12364935	    139.30911942	     13.60750278	      9.52969804	      0.00000000	      0.00000000	     10.14023016	      4.80918671	      0.00000000	    121.10672067	      8.60713283	     13.37581987	     10.13278986	     37.35579485	     29.69903954	      0.00000000	      5.24908896	      0.00000000	     44.76419294	      0.00000000	      0.00000000	      0.00000000	     32.09607019	     17.12227755	      0.00000000	     21.21956524	     11.51865155	      9.75666867	     33.18187222	      2.38650657	      8.77674816	      4.52588848	     19.46742473	      6.10906391	      0.00000000	     13.48213162	     14.32159176	      6.16609273	      7.02596954	      7.07013976	      0.00000000	     10.33588161	     12.44015345	     17.05180020	      3.51074559	     13.60750278	      9.52969804	      0.00000000	      0.00000000	     10.14023016	      7.79649749	      0.00000000	      3.65282625	      8.60713283	     13.37581987	     10.13278986	     37.35579485	     29.69903954	      0.00000000	      5.24908896	      0.00000000	     26.90522683	      0.00000000	      0.00000000	      0.00000000	      0.00000000	      0.86944568	     48.10837536	     59.64252108	     10.75783361	      9.91703862	     14.67461994	     10.17738399	     22.36159269	      4.55554420	      7.81629753	      2.44312365	     58.09718563	     58.09718563	     22.30761217	     22.30761217	     38.96459689	     38.96459689	     68.70274365	    338.54143757	     28.90379027	    -20.06027994	      1.69228226	     28.34453314	    -68.70274365	   -338.54143757	    -28.90379027	     10.12403042	     -2.18124028	      1.00041253	     35.92362408	    175.77257219	      4.11947874	      1.93415567	     -0.65616559	     14.17103846	    -35.92362408	   -175.77257219	     -4.11947874	     -2.92100608	      0.49850499	      1.16188474	    -10.68819292	   -486.94286042	     52.22052285	     -9.97963571	      0.54743130	      3.40783999	     10.68819292	    486.94286042	    -52.22052285	     31.62984534	     -0.11787764	      5.02887568	      5.30853919	   -256.48361294	    -51.33130010	      8.51913823	     -0.23352894	      2.05323764	     -5.30853919	    256.48361294	     51.33130010	    -27.32586451	     -0.20620800	     -1.80097296	     63.25573764	     40.58374164	      0.00000000	      0.00000000	      0.00000000	     -5.31702196	    -28.92487049	      0.00000000	      0.00000000	      0.00000000	      0.00000000	      0.00000000	      0.00000001	      0.00000000
      0.08415943	      0.00000000	     13.40512640	     14.26282633	      6.12561170	      6.98120069	      7.08492642	     48.49811087	    232.25912472	    290.74779995	    413.14400323	    139.09766166	     13.51421836	      9.46767047	      0.00000000	      0.26588896	     10.08093540	      4.80331643	      0.00000000	    120.79893955	      8.57008276	     13.28824338	     10.06355577	     37.18163635	     29.50118563	      0.00000000	      5.22268583	      0.00000000	     44.17927461	      0.00000000	      0.00000000	      0.00000000	     30.06169541	     15.80727431	      0.00000000	     19.87826829	     11.32360953	      9.58339796	     35.29002794	      2.39809003	      8.52436596	      7.38191179	     19.39388733	      6.08618239	      0.00000000	     13.40512640	     14.26282633	      6.12561170	      6.98120069	      7.08492642	      0.00000000	     10.26283138	     12.69855252	     16.93756258	      3.48779606	     13.51421836	      9.46767047	      0.00000000	      0.26588896	     10.08093540	      7.76344012	      0.00000000	      3.62857483	      8.57008276	     13.28824338	     10.06355577	     37.18163635	     29.50118563	      0.00000000	      5.22268583	      0.00000000	     26.80783158	      0.00000000	      0.00000000	      0.00000000	      0.00000000	      1.42626125	     48.90326523	     59.60885620	     10.68280051	      9.88389063	     14.96253234	     10.16869640	     22.36222150	      4.52750075	      7.94472410	      2.49335993	     57.71503265	     57.71503265	     22.15267593	     22.15267593	     38.81979698	     38.81979698	     69.10982417	    340.41006180	     30.19263033	    -20.63981099	      1.70668461	     28.49484883	    -69.10982417	   -340.41006180	    -30.19263033	     10.21270618	     -2.21238833	      1.07402298	     33.18650618	    177.32458059	      3.90409565	      2.05128636	     -0.58533063	     12.99677367	    -33.18650618	   -177.32458059	     -3.90409565	     -2.95193273	      0.43850843	      1.32779611	     -9.55104407	   -483.22563397	     51.22106619	     -9.86733519	      0.53524771	      3.55766424	      9.55104407	    483.22563397	    -51.22106619	     31.11855044	     -0.10310566	      4.48186802	      4.39579125	   -254.06425297	    -51.22008031	      8.45173941	     -0.26808155	      2.05796609	     -4.39579125	    254.06425297	     51.22008031	    -27.22677382	     -0.18136280	     -1.43991531	     63.51159259	     40.03423872	      0.00000000	      0.00000000	      0.00000000	     -5.49488014	    -29.58528244	      0.00000000	      0.00000000	      0.00000000	      0.00000000	      0.00000000	      0.00000001	      0.00000000
